HIERARCHY
ROOT Hips
{
	OFFSET -3.958830 18.904000 13.208200
	CHANNELS 6 Xposition Yposition Zposition Zrotation Yrotation Xrotation 
	JOINT LHipJoint
	{
		OFFSET 0.000000 0.000000 0.000000
		CHANNELS 3 Zrotation Yrotation Xrotation
		JOINT LeftUpLeg
		{
			OFFSET 1.800000 -1.400000 0.085000
			CHANNELS 3 Zrotation Yrotation Xrotation
			JOINT LeftLeg
			{
				OFFSET 2.215000 -6.000000 0.000000
				CHANNELS 3 Zrotation Yrotation Xrotation
				JOINT LeftFoot
				{
					OFFSET 2.500000 -6.900000 0.000000
					CHANNELS 3 Zrotation Yrotation Xrotation
					JOINT LeftToeBase
					{
						OFFSET 0.200000 -0.500000 1.950000
						CHANNELS 3 Zrotation Yrotation Xrotation
						End Site
						{
							OFFSET 0.000000 0.000000 0.000000
						}
					}
				}
			}
		}
	}
	JOINT RHipJoint
	{
		OFFSET 0.000000 0.000000 0.000000
		CHANNELS 3 Zrotation Yrotation Xrotation
		JOINT RightUpLeg
		{
			OFFSET -1.800000 -1.400000 0.085000
			CHANNELS 3 Zrotation Yrotation Xrotation
			JOINT RightLeg
			{
				OFFSET -2.215000 -6.000000 0.000000
				CHANNELS 3 Zrotation Yrotation Xrotation
				JOINT RightFoot
				{
					OFFSET -2.500000 -6.900000 0.000000
					CHANNELS 3 Zrotation Yrotation Xrotation
					JOINT RightToeBase
					{
						OFFSET -0.200000 -0.500000 1.950000
						CHANNELS 3 Zrotation Yrotation Xrotation
						End Site
						{
							OFFSET 0.000000 0.000000 0.000000
						}
					}
				}
			}
		}
	}
	JOINT LowerBack
	{
		OFFSET 0.000000 0.000000 0.000000
		CHANNELS 3 Zrotation Yrotation Xrotation
		JOINT Spine
		{
			OFFSET -0.087000 1.940000 -0.288900
			CHANNELS 3 Zrotation Yrotation Xrotation
			JOINT Spine1
			{
				OFFSET 0.000000 1.950000 0.060000
				CHANNELS 3 Zrotation Yrotation Xrotation
				JOINT Neck
				{
					OFFSET 0.000000 0.000000 0.000000
					CHANNELS 3 Zrotation Yrotation Xrotation
					JOINT Neck1
					{
						OFFSET 0.000000 1.600000 0.340000
						CHANNELS 3 Zrotation Yrotation Xrotation
						JOINT Head
						{
							OFFSET 0.000000 1.667000 -0.240000
							CHANNELS 3 Zrotation Yrotation Xrotation
							End Site
							{
								OFFSET 0.000000 0.000000 0.000000
							}
						}
					}
				}
				JOINT LeftShoulder
				{
					OFFSET 0.000000 0.000000 0.000000
					CHANNELS 3 Zrotation Yrotation Xrotation
					JOINT LeftArm
					{
						OFFSET 2.700000 1.550000 -0.730000
						CHANNELS 3 Zrotation Yrotation Xrotation
						JOINT LeftForeArm
						{
							OFFSET 5.450000 0.000000 0.000000
							CHANNELS 3 Zrotation Yrotation Xrotation
							JOINT LeftHand
							{
								OFFSET 3.450000 0.000000 0.000000
								CHANNELS 3 Zrotation Yrotation Xrotation
								JOINT LeftHandIndex1
								{
									OFFSET 0.750000 0.000000 0.000000
									CHANNELS 3 Zrotation Yrotation Xrotation
									End Site
									{
										OFFSET 0.000000 0.000000 0.000000
									}
								}
							}
						}
					}
				}
				JOINT RightShoulder
				{
					OFFSET 0.000000 0.000000 0.000000
					CHANNELS 3 Zrotation Yrotation Xrotation
					JOINT RightArm
					{
						OFFSET -2.700000 1.550000 -0.730000
						CHANNELS 3 Zrotation Yrotation Xrotation
						JOINT RightForeArm
						{
							OFFSET -5.450000 0.000000 0.000000
							CHANNELS 3 Zrotation Yrotation Xrotation
							JOINT RightHand
							{
								OFFSET -3.450000 0.000000 0.000000
								CHANNELS 3 Zrotation Yrotation Xrotation
								JOINT RightHandIndex1
								{
									OFFSET -0.750000 0.000000 0.000000
									CHANNELS 3 Zrotation Yrotation Xrotation
									End Site
									{
										OFFSET 0.000000 0.000000 0.000000
									}
								}
							}
						}
					}
				}
			}
		}
	}
}
MOTION
Frames: 8
Frame Time: 0.016667
-0.198660 15.195680 -0.841460 -8.851512 -41.817803 3.981024 -16.029753 12.781113 4.427335 36.141690 -3.839527 -27.974674 -3.118187 17.201745 56.752093 0.889067 11.249075 0.235950 0.560010 0.617350 0.640820 17.956933 -6.925742 4.348196 -9.672676 10.900921 -50.714285 -6.684440 -5.222535 51.530282 -0.992980 -6.259209 1.868327 0.297160 -0.506870 0.075560 -2.262016 -6.592300 -9.523416 -4.374824 -5.564965 53.168622 8.817454 -5.652960 2.766003 -1.901026 -7.909910 -15.913327 -25.570589 21.245052 43.153521 -10.323480 18.656460 -26.641140 -34.790055 -38.808940 5.758234 -24.391240 -48.859150 0.795585 5.931982 -67.675767 -3.021801 -3.322750 2.857567 0.539700 -0.332880 0.531740 -0.070390 40.410591 34.321033 13.928777 26.724528 8.570744 -13.249285 9.776857 38.816746 1.718666 2.127238 -1.604245 0.063730 0.082850 -0.198730 -0.265340 
-0.211060 15.094810 -0.837410 -9.359285 -42.545378 3.591085 -16.039704 12.732334 4.347469 36.841763 -3.882284 -27.038263 -2.748894 17.454750 57.870876 0.954377 11.425825 0.192823 0.553840 0.607410 0.640860 17.968785 -6.824275 4.468833 -9.841547 11.410146 -51.531847 -6.510070 -5.779138 54.284105 -1.093335 -6.787372 1.701683 0.289290 -0.513210 0.074920 -2.294769 -6.573903 -9.556102 -4.185722 -5.530072 54.360326 8.794117 -5.540791 2.786051 -1.975191 -8.242954 -15.802971 -26.057126 20.479878 42.325654 -11.179180 18.055790 -26.927790 -35.203110 -39.722276 4.956107 -23.528801 -48.810880 1.366884 12.288226 -69.948250 -6.771441 -3.436188 2.717468 0.533490 -0.334770 0.529020 -0.072820 40.984557 34.861148 14.683540 26.104257 8.398222 -13.036915 8.619949 36.920958 1.377090 2.131086 -1.607786 0.067010 0.078490 -0.198760 -0.264770 
-0.226810 14.943210 -0.831570 -10.406895 -43.835876 2.763211 -16.053290 12.683777 4.218006 37.976877 -4.095324 -25.425995 -1.926586 17.756914 60.133158 1.087099 11.740014 0.126392 0.551060 0.597130 0.626320 17.983075 -6.664521 4.662006 -9.913803 12.404994 -52.574544 -6.261679 -6.758603 58.961120 -1.278978 -7.689408 1.431425 0.277910 -0.510720 0.076340 -2.319291 -6.591046 -9.575956 -3.888519 -5.293713 57.485082 9.633388 -5.067496 2.181979 -2.093568 -9.333522 -16.293811 -28.341303 20.055653 40.074367 -11.810130 16.986640 -26.911080 -36.745673 -41.173336 3.892273 -21.987473 -48.713897 1.587491 23.398178 -72.931301 -13.972889 -3.581426 2.516557 0.520330 -0.340700 0.520770 -0.060790 43.105174 35.875915 16.428942 23.282906 8.275089 -12.366815 5.627961 31.102016 0.682657 2.159102 -1.611163 0.077760 0.073270 -0.202630 -0.249870 
-0.235440 14.789410 -0.823110 -11.483554 -45.875575 1.360321 -16.053062 12.626067 4.130479 39.290177 -4.601279 -23.019304 -1.914855 18.741050 62.919878 1.275250 12.229377 0.015371 0.561670 0.605710 0.604200 17.998568 -6.559050 4.808222 -9.496382 13.501396 -52.986456 -6.477226 -7.418399 63.312302 -1.468377 -8.502366 1.199936 0.278780 -0.503990 0.073080 -2.334315 -6.535192 -9.551043 -3.847898 -4.611827 61.862365 10.914666 -4.038850 1.298809 -2.265821 -10.851145 -17.158676 -32.187975 20.125805 37.151216 -11.775470 15.533180 -26.894650 -38.396747 -42.277012 2.429928 -20.697783 -49.035086 1.471753 36.895354 -74.834915 -23.449821 -3.694067 2.290713 0.510390 -0.355730 0.513920 -0.039530 45.714691 36.689611 18.824069 19.097956 8.250484 -11.152113 3.311462 23.551033 0.345056 2.221997 -1.572511 0.091070 0.079910 -0.207900 -0.225000 
-0.252980 14.624750 -0.819400 -12.186651 -47.143717 0.195455 -16.063302 12.487595 4.060463 40.457081 -5.299265 -21.180018 -2.037227 19.701367 65.331424 1.429443 12.654644 -0.080185 0.567600 0.612150 0.586290 18.018594 -6.391875 5.020128 -9.554980 14.304217 -54.744730 -6.915250 -8.345537 68.364457 -1.689481 -9.462162 0.926116 0.282040 -0.495920 0.070460 -2.367380 -6.458176 -9.577710 -3.892552 -4.137915 65.283599 12.034918 -3.292811 0.640973 -2.474160 -11.987639 -17.745426 -34.894276 19.860929 34.629968 -11.726160 14.266020 -27.070580 -39.007486 -42.765313 0.795453 -20.171694 -49.778943 1.534655 48.811970 -75.480157 -32.165427 -3.783965 2.080240 0.501240 -0.364430 0.506470 -0.026630 47.278537 36.867435 20.874766 16.249565 7.986703 -9.465052 1.695896 17.228866 0.184636 2.310929 -1.470546 0.098990 0.088900 -0.207490 -0.206310 
-0.259530 14.475020 -0.821020 -12.658328 -48.307441 -0.815301 -16.074949 12.278371 4.105032 41.346705 -6.204241 -20.229265 -2.724772 21.100747 68.072095 1.601689 13.161140 -0.201746 0.570850 0.616290 0.580110 18.038016 -6.264947 5.155086 -9.257410 14.810181 -56.254023 -7.963150 -8.682574 72.376696 -1.869771 -10.173615 0.730701 0.276870 -0.499600 0.067890 -2.425537 -6.287639 -9.643327 -3.999924 -3.686764 67.882508 12.634454 -2.658849 0.381801 -2.505343 -12.480203 -18.463092 -36.468684 19.858863 34.042561 -11.715590 13.669240 -27.237580 -39.078921 -43.187939 -0.490323 -19.644567 -49.922151 0.813933 57.912056 -75.596182 -39.112537 -3.819000 1.897820 0.504180 -0.378300 0.511960 -0.021920 47.784299 37.125227 22.488012 15.005155 7.676969 -7.779809 0.085536 12.472318 0.076047 2.416129 -1.332181 0.107710 0.093670 -0.207910 -0.196030 
-0.261430 14.353610 -0.831450 -13.055870 -49.168383 -1.362913 -16.087732 12.016884 4.216796 42.043051 -7.139410 -20.141616 -3.735290 22.538534 70.364321 1.746765 13.609767 -0.315894 0.576320 0.626190 0.585570 18.058944 -6.162431 5.250879 -8.639386 15.109801 -57.745825 -9.270112 -8.545105 75.219830 -2.001865 -10.640054 0.601348 0.271250 -0.513450 0.070310 -2.525966 -6.043369 -9.742999 -4.024385 -3.399847 69.524333 12.550176 -2.257751 0.618051 -2.510673 -12.328924 -19.025974 -36.500363 19.909527 35.044181 -11.511190 13.685440 -27.577860 -38.610847 -43.804180 -1.600069 -18.769020 -49.445991 -0.486353 63.881970 -75.782511 -43.860674 -3.779652 1.742975 0.515050 -0.393450 0.529610 -0.023990 47.415688 37.510232 23.494563 15.452272 7.237166 -6.325861 -1.314223 9.227000 0.030634 2.506453 -1.218124 0.118730 0.090480 -0.211240 -0.193140 
-0.265880 14.261610 -0.837930 -13.220989 -50.202738 -1.952427 -16.077485 11.797447 4.270380 42.232453 -7.924539 -19.645316 -4.660211 23.794244 72.091511 1.857929 13.973147 -0.410736 0.578740 0.629680 0.596200 18.087281 -6.126174 5.348591 -7.735157 15.508708 -58.947730 -11.042605 -7.765941 77.486196 -2.106009 -10.968819 0.511221 0.265880 -0.530750 0.071290 -2.668813 -5.719668 -9.822016 -3.816622 -3.200219 70.441163 11.677200 -1.902578 1.203009 -2.442748 -11.954152 -19.417671 -36.237179 19.776735 36.851038 -11.525550 13.635610 -27.871950 -38.288571 -44.315721 -2.324597 -17.848798 -48.602407 -1.868661 66.938239 -76.276220 -46.561773 -3.658791 1.579951 0.533590 -0.407710 0.548530 -0.032200 46.867578 37.917181 23.968812 16.740811 6.584891 -5.355349 -2.602647 7.157316 0.033216 2.564322 -1.148397 0.122870 0.090690 -0.210090 -0.198170 
